<svg width="41" height="41" viewBox="0 0 41 41" fill="none" xmlns="http://www.w3.org/2000/svg">
<path fill-rule="evenodd" clip-rule="evenodd" d="M15.2117 31.344H11.0767C10.1533 31.344 9.405 30.5957 9.405 29.6724V25.5357C9.405 25.0924 9.22833 24.6674 8.915 24.354L5.99 21.429C5.33667 20.7757 5.33667 19.7174 5.99 19.0657L8.945 16.1107C9.24 15.8157 9.405 15.4174 9.405 15.0007V10.8257C9.405 9.90236 10.1533 9.15402 11.0767 9.15402H15.2133C15.6567 9.15402 16.0817 8.97736 16.395 8.66402L19.32 5.73902C19.9733 5.08569 21.0317 5.08569 21.6833 5.73902L24.6083 8.66402C24.9217 8.97736 25.3467 9.15402 25.79 9.15402H29.9267C30.85 9.15402 31.5983 9.90236 31.5983 10.8257V14.9624C31.5983 15.4057 31.775 15.8307 32.0883 16.144L35.0133 19.069C35.6667 19.7224 35.6667 20.7807 35.0133 21.4324L32.0883 24.3574C31.775 24.6707 31.5983 25.0957 31.5983 25.539V29.6757C31.5983 30.599 30.85 31.3474 29.9267 31.3474H25.79C25.3467 31.3474 24.9217 31.524 24.6083 31.8374L21.6833 34.7624C21.03 35.4157 19.9717 35.4157 19.32 34.7624L16.395 31.8374C16.08 31.519 15.655 31.344 15.2117 31.344Z" fill="#04D361"/>
<path d="M25.5 17.749L19.25 23.999L15.5 20.249" stroke="white" stroke-width="2" stroke-linecap="round" stroke-linejoin="round"/>
</svg>
