<svg width="44" height="44" viewBox="0 0 44 44" fill="none" xmlns="http://www.w3.org/2000/svg">
<path d="M35.5094 8.80955C31.9669 5.25858 27.2492 3.30554 22.2355 3.30554C11.887 3.30554 3.46612 11.7264 3.46612 22.075C3.46612 25.3807 4.3285 28.6104 5.96871 31.4597L3.30548 41.1826L13.2567 38.5701C15.996 40.0665 19.0819 40.8528 22.2271 40.8528H22.2355C32.5756 40.8528 41.1825 32.432 41.1825 22.0834C41.1825 17.0698 39.0519 12.3605 35.5094 8.80955ZM22.2355 37.6908C19.4286 37.6908 16.6808 36.9383 14.2881 35.5179L13.7217 35.1797L7.82029 36.7269L9.39286 30.9693L9.02085 30.3775C7.45673 27.8918 6.63663 25.0256 6.63663 22.075C6.63663 13.4765 13.6371 6.47605 22.244 6.47605C26.4122 6.47605 30.3267 8.09935 33.2689 11.05C36.2111 14.0007 38.0204 17.9152 38.012 22.0834C38.012 30.6903 30.834 37.6908 22.2355 37.6908ZM30.7917 26.0064C30.3267 25.7697 28.0185 24.6367 27.5874 24.4845C27.1562 24.3239 26.8433 24.2478 26.5305 24.7213C26.2177 25.1947 25.3215 26.2431 25.0425 26.5644C24.7719 26.8772 24.4929 26.9195 24.0279 26.6828C21.2717 25.3046 19.4624 24.2224 17.6446 21.1027C17.1627 20.2741 18.1266 20.3333 19.0228 18.5409C19.1749 18.2281 19.0988 17.9575 18.9805 17.7208C18.8621 17.4841 17.9236 15.1759 17.5347 14.2375C17.1543 13.3244 16.7653 13.4512 16.4779 13.4343C16.2073 13.4174 15.8945 13.4174 15.5817 13.4174C15.2689 13.4174 14.7616 13.5357 14.3304 14.0007C13.8992 14.4742 12.6902 15.6071 12.6902 17.9152C12.6902 20.2234 14.3727 22.4554 14.6009 22.7682C14.8377 23.0811 17.9067 27.8157 22.616 29.8533C25.592 31.1384 26.7588 31.2483 28.2468 31.0285C29.1515 30.8932 31.02 29.8955 31.4089 28.7964C31.7978 27.6973 31.7978 26.7589 31.6794 26.5644C31.5695 26.353 31.2567 26.2347 30.7917 26.0064Z" fill="white"/>
</svg>
